# xmcd
#
# Track frame offsets:
#	150
#	11919
#	25698
#	36100
#	48986
#	67948
#	78476
#	96339
#	107680
#	120984
#	130137
#	145202
#	163148
#	180811
#	193156
#
# Disc length: 2796 seconds
#
# Revision: 1
# Processed by: cddbd v1.5.2PL0 Copyright (c) Steve Scherf et al.
# Submitted via: audiograbber 1.83.01
#
DISCID=c00aea0f
DTITLE=Heidi Hauge - Country Christmas
DYEAR=2007
DGENRE=Christmas
TTITLE0=Christmas tree (2007)
TTITLE1=Country christmas (2007)
TTITLE2=With bells on (Duet med Johnny Hansen) (2007)
TTITLE3=Joy to the world (2007)
TTITLE4=Down by the river (2007)
TTITLE5=Rockin' around the christmas tree (2007)
TTITLE6=Winter wonderland (2007)
TTITLE7=The greatest christmasgift of all (2007)
TTITLE8=Silver bells (2007)
TTITLE9=Mr and Mrs Santa claus (2007)
TTITLE10=Christmas party (2007)
TTITLE11=O holy night (2007)
TTITLE12=Santa claus (I still believe in you) (2007)
TTITLE13=Silent night (2007)
TTITLE14=Christmas without you (2007)
EXTD=
EXTT0=
EXTT1=
EXTT2=
EXTT3=
EXTT4=
EXTT5=
EXTT6=
EXTT7=
EXTT8=
EXTT9=
EXTT10=
EXTT11=
EXTT12=
EXTT13=
EXTT14=
PLAYORDER=
